<?xml version="1.0" standalone="no"?>
<!DOCTYPE svg PUBLIC "-//W3C//DTD SVG 20010904//EN"
 "http://www.w3.org/TR/2001/REC-SVG-20010904/DTD/svg10.dtd">
<svg version="1.0" xmlns="http://www.w3.org/2000/svg"
 width="99.000000pt" height="62.000000pt" viewBox="0 0 99.000000 62.000000"
 preserveAspectRatio="xMidYMid meet">
<metadata>
Created by potrace 1.10, written by Peter Selinger 2001-2011
</metadata>
<g transform="translate(0.000000,62.000000) scale(0.100000,-0.100000)"
fill="#f73c3c" stroke="none">
<path d="M190 604 c-36 -8 -75 -16 -87 -19 -17 -4 -29 -28 -63 -131 -23 -69
-40 -128 -37 -130 3 -3 48 -32 101 -64 l95 -58 88 10 c48 5 92 10 97 11 10 3
86 248 80 259 -7 12 -192 138 -201 137 -4 -1 -37 -7 -73 -15z m50 -110 c-18
-52 -30 -97 -27 -100 5 -5 26 47 33 85 8 41 32 91 44 91 16 0 138 -88 142
-102 3 -7 -9 -58 -26 -115 -33 -112 -43 -122 -96 -86 -14 9 -19 10 -12 3 24
-27 12 -33 -54 -27 -64 6 -164 48 -164 69 0 5 3 7 7 5 5 -3 17 -1 27 2 13 5
26 0 42 -16 23 -23 64 -32 64 -13 0 6 -11 10 -24 10 -13 0 -29 7 -36 15 -10
12 -9 15 7 15 10 0 27 -6 38 -13 23 -15 75 -38 75 -33 0 1 -20 17 -45 35 -46
33 -46 33 -109 22 -76 -13 -106 -14 -106 -2 0 5 11 12 25 15 31 8 54 51 37 68
-21 21 -13 53 17 76 16 12 31 31 33 43 5 33 21 33 40 -1 12 -20 22 -28 33 -24
16 6 51 64 39 64 -4 0 0 7 7 16 25 30 21 -5 -11 -102z m-25 56 c-12 -14 -22
-17 -29 -10 -6 6 -3 16 9 30 12 14 22 17 29 10 6 -6 3 -16 -9 -30z m-104 -19
c-7 -12 -16 -21 -21 -21 -14 0 -12 34 2 48 18 18 32 -2 19 -27z m-41 -124 c0
-8 -9 -22 -20 -32 -19 -18 -20 -17 -20 1 0 20 17 44 32 44 4 0 8 -6 8 -13z
m140 -177 c12 -8 11 -10 -7 -10 -12 0 -25 5 -28 10 -8 13 15 13 35 0z"/>
<path d="M316 454 c-40 -39 4 -105 45 -68 24 22 24 46 1 67 -23 21 -27 21 -46
1z m39 -34 c0 -36 -29 -33 -33 3 -3 23 0 28 15 25 12 -2 18 -12 18 -28z"/>
<path d="M126 425 c-14 -21 -15 -29 -5 -41 26 -32 73 -6 67 38 -5 34 -41 35
-62 3z m45 -24 c-13 -23 -26 -27 -36 -10 -4 5 1 19 11 30 22 25 41 10 25 -20z"/>
<path d="M725 458 c-33 -11 -82 -25 -110 -32 l-50 -13 -17 -84 c-9 -46 -19
-104 -22 -129 l-6 -45 89 -75 c53 -44 98 -74 109 -73 21 2 180 59 199 71 10 7
43 117 67 223 5 24 -3 33 -87 96 -50 38 -96 72 -102 75 -5 3 -37 -4 -70 -14z
m88 -23 c-3 -17 -27 -17 -48 0 -19 15 -18 15 15 13 19 -2 34 -7 33 -13z m-41
-32 c22 -16 48 -32 56 -38 9 -5 25 -18 36 -28 15 -14 31 -17 58 -14 21 3 40 1
43 -3 5 -8 -50 -32 -140 -60 -22 -7 -45 -16 -51 -21 -6 -5 -14 -6 -18 -2 -4 4
-4 0 -1 -8 5 -14 10 -14 43 2 20 10 52 21 70 25 28 6 32 4 32 -14 0 -12 7 -25
17 -30 14 -9 15 -15 3 -56 -11 -39 -20 -50 -52 -67 -38 -19 -41 -19 -59 -3
-10 9 -27 14 -39 11 -11 -3 -20 0 -21 6 0 7 -7 -9 -15 -35 -10 -33 -19 -46
-28 -42 -10 4 -12 17 -9 44 5 32 2 40 -17 50 -17 9 -25 9 -39 -4 -16 -15 -19
-15 -35 2 -20 23 -12 59 10 41 18 -15 42 -5 54 23 5 13 9 17 9 11 1 -17 36
-16 50 1 25 30 7 64 -67 122 -40 31 -72 63 -72 71 0 7 2 13 4 13 2 0 41 -29
87 -65 45 -36 87 -65 94 -65 6 0 19 6 29 13 33 24 11 53 -75 101 -9 5 -22 18
-28 28 -18 28 21 23 71 -9z m-101 6 c11 -5 17 -14 14 -20 -9 -14 -41 -11 -54
5 -11 13 -7 19 17 25 2 1 12 -4 23 -10z m194 -10 c4 -6 5 -13 1 -16 -8 -8 -56
6 -56 17 0 13 47 13 55 -1z m-127 -47 c3 -10 -4 -13 -24 -10 -15 2 -29 9 -32
16 -3 10 4 13 24 10 15 -2 29 -9 32 -16z m186 5 c18 -13 18 -14 2 -20 -19 -8
-56 8 -56 23 0 14 33 12 54 -3z m-320 -30 c8 -12 7 -20 -1 -28 -16 -16 -33 -2
-33 27 0 28 17 28 34 1z m59 -23 c24 -22 26 -27 12 -40 -8 -9 -15 -20 -15 -25
0 -6 -9 -5 -22 2 -18 10 -24 8 -35 -7 -7 -10 -13 -22 -13 -27 0 -5 -7 -4 -15
3 -8 7 -15 25 -15 40 0 22 4 27 19 23 22 -6 54 24 47 43 -8 21 6 17 37 -12z
m121 20 c22 -8 20 -34 -1 -34 -26 0 -47 16 -39 29 8 12 17 14 40 5z m176 -57
c0 -8 -9 -22 -19 -31 -26 -23 -39 -2 -15 25 20 22 34 25 34 6z m-252 -19 c16
-16 15 -48 -2 -48 -14 0 -26 21 -26 46 0 17 12 18 28 2z m-70 -30 c16 -16 15
-48 -2 -48 -14 0 -26 21 -26 46 0 17 12 18 28 2z m-58 -55 c0 -18 -29 -16 -36
2 -4 8 -3 23 1 33 6 16 7 16 21 -2 8 -11 14 -26 14 -33z m98 -65 c13 -13 16
-48 4 -48 -14 0 -32 23 -32 42 0 21 11 23 28 6z m122 -21 c0 -17 -20 -37 -37
-37 -16 0 -17 22 -1 38 16 16 38 15 38 -1z"/>
<path d="M836 184 c-19 -18 -21 -61 -3 -67 32 -11 76 44 55 71 -14 16 -33 15
-52 -4z m35 -33 c-12 -22 -41 -29 -41 -9 0 6 8 20 17 30 21 24 39 8 24 -21z"/>
</g>
</svg>
